<svg width="512" height="512" viewBox="0 0 512 512" fill="none" xmlns="http://www.w3.org/2000/svg">
<rect width="512" height="512" fill="#1E1E1E"/>
<rect width="512" height="512" rx="112" fill="url(#paint0_linear_0_1)"/>
<g filter="url(#filter0_d_0_1)">
<path d="M190.434 245H325.172C337.847 240.359 348.842 254.977 340.867 265.867L245.817 395.653C244.77 397.084 242.516 396.544 242.23 394.794L226.774 300.354C226.616 299.387 225.781 298.677 224.801 298.677H150.219C148.532 298.677 147.603 296.717 148.671 295.411L173.781 264.71L190.434 245Z" fill="white"/>
<path d="M190.434 245H325.172C337.847 240.359 348.842 254.977 340.867 265.867L245.817 395.653C244.77 397.084 242.516 396.544 242.23 394.794L226.774 300.354C226.616 299.387 225.781 298.677 224.801 298.677H150.219C148.532 298.677 147.603 296.717 148.671 295.411L173.781 264.71L190.434 245Z" fill="white"/>
</g>
<g filter="url(#filter1_d_0_1)">
<path d="M175.333 192H352.217H355.136C371.404 192 380.866 210.387 371.411 223.625L366.5 230.5L334.953 273C342.165 263.107 335.153 249.204 322.911 249.122L121.897 247.775C120.106 247.763 119.232 245.583 120.52 244.337L153.47 212.468L175.333 192Z" fill="white"/>
<path d="M175.333 192H352.217H355.136C371.404 192 380.866 210.387 371.411 223.625L366.5 230.5L334.953 273C342.165 263.107 335.153 249.204 322.911 249.122L121.897 247.775C120.106 247.763 119.232 245.583 120.52 244.337L153.47 212.468L175.333 192Z" fill="white"/>
</g>
<g filter="url(#filter2_d_0_1)">
<path d="M180.178 137H383.881H404.996C416.345 137 422.978 149.794 416.437 159.068L371 223.5C379.484 211.469 370.88 194.872 356.158 194.872H135.249C133.558 194.872 131.946 194.159 130.809 192.908L86.08 143.69C83.7447 141.121 85.568 137 89.0402 137H180.178Z" fill="white"/>
<path d="M180.178 137H383.881H404.996C416.345 137 422.978 149.794 416.437 159.068L371 223.5C379.484 211.469 370.88 194.872 356.158 194.872H135.249C133.558 194.872 131.946 194.159 130.809 192.908L86.08 143.69C83.7447 141.121 85.568 137 89.0402 137H180.178Z" fill="white"/>
</g>
<defs>
<filter id="filter0_d_0_1" x="138.216" y="244.116" width="215.355" height="172.357" filterUnits="userSpaceOnUse" color-interpolation-filters="sRGB">
<feFlood flood-opacity="0" result="BackgroundImageFix"/>
<feColorMatrix in="SourceAlpha" type="matrix" values="0 0 0 0 0 0 0 0 0 0 0 0 0 0 0 0 0 0 127 0" result="hardAlpha"/>
<feOffset dy="10"/>
<feGaussianBlur stdDeviation="5"/>
<feComposite in2="hardAlpha" operator="out"/>
<feColorMatrix type="matrix" values="0 0 0 0 0 0 0 0 0 0 0 0 0 0 0 0 0 0 0.25 0"/>
<feBlend mode="normal" in2="BackgroundImageFix" result="effect1_dropShadow_0_1"/>
<feBlend mode="normal" in="SourceGraphic" in2="effect1_dropShadow_0_1" result="shape"/>
</filter>
<filter id="filter1_d_0_1" x="104.907" y="192" width="285.265" height="111" filterUnits="userSpaceOnUse" color-interpolation-filters="sRGB">
<feFlood flood-opacity="0" result="BackgroundImageFix"/>
<feColorMatrix in="SourceAlpha" type="matrix" values="0 0 0 0 0 0 0 0 0 0 0 0 0 0 0 0 0 0 127 0" result="hardAlpha"/>
<feOffset dy="15"/>
<feGaussianBlur stdDeviation="7.5"/>
<feComposite in2="hardAlpha" operator="out"/>
<feColorMatrix type="matrix" values="0 0 0 0 0 0 0 0 0 0 0 0 0 0 0 0 0 0 0.25 0"/>
<feBlend mode="normal" in2="BackgroundImageFix" result="effect1_dropShadow_0_1"/>
<feBlend mode="normal" in="SourceGraphic" in2="effect1_dropShadow_0_1" result="shape"/>
</filter>
<filter id="filter2_d_0_1" x="70.0323" y="137" width="363.988" height="116.5" filterUnits="userSpaceOnUse" color-interpolation-filters="sRGB">
<feFlood flood-opacity="0" result="BackgroundImageFix"/>
<feColorMatrix in="SourceAlpha" type="matrix" values="0 0 0 0 0 0 0 0 0 0 0 0 0 0 0 0 0 0 127 0" result="hardAlpha"/>
<feOffset dy="15"/>
<feGaussianBlur stdDeviation="7.5"/>
<feComposite in2="hardAlpha" operator="out"/>
<feColorMatrix type="matrix" values="0 0 0 0 0 0 0 0 0 0 0 0 0 0 0 0 0 0 0.25 0"/>
<feBlend mode="normal" in2="BackgroundImageFix" result="effect1_dropShadow_0_1"/>
<feBlend mode="normal" in="SourceGraphic" in2="effect1_dropShadow_0_1" result="shape"/>
</filter>
<linearGradient id="paint0_linear_0_1" x1="256" y1="0" x2="256" y2="512" gradientUnits="userSpaceOnUse">
<stop stop-color="#6468F0"/>
<stop offset="1" stop-color="#4F46E5"/>
</linearGradient>
</defs>
</svg>
