<svg width="502" height="388" viewBox="0 0 502 388" fill="none" xmlns="http://www.w3.org/2000/svg">
<g clip-path="url(#clip0_9_12)">
<g filter="url(#filter0_d_9_12)">
<path d="M155.793 161.247H349.231C367.427 154.586 383.209 175.573 371.758 191.204L234.077 379.154C233.029 380.585 230.776 380.045 230.49 378.296L207.846 239.967C207.687 239 206.852 238.29 205.872 238.29H96.2201C94.5329 238.29 93.6038 236.329 94.6721 235.024L131.884 189.536L155.793 161.247Z" fill="url(#paint0_linear_9_12)"/>
<path d="M155.793 161.247H349.231C367.427 154.586 383.209 175.573 371.758 191.204L234.077 379.154C233.029 380.585 230.776 380.045 230.49 378.296L207.846 239.967C207.687 239 206.852 238.29 205.872 238.29H96.2201C94.5329 238.29 93.6038 236.329 94.6721 235.024L131.884 189.536L155.793 161.247Z" fill="url(#paint1_linear_9_12)"/>
</g>
<g filter="url(#filter1_d_9_12)">
<path d="M134.394 85H387.266H408.176C424.435 85 433.9 103.372 424.46 116.611L407.686 140.136L362.586 201L364.339 198.591C373.922 185.422 364.589 166.933 348.302 166.824L55.891 164.861C54.1005 164.849 53.2268 162.67 54.5128 161.424L103.138 114.312L134.394 85Z" fill="url(#paint2_linear_9_12)"/>
<path d="M134.394 85H387.266H408.176C424.435 85 433.9 103.372 424.46 116.611L407.686 140.136L362.586 201L364.339 198.591C373.922 185.422 364.589 166.933 348.302 166.824L55.891 164.861C54.1005 164.849 53.2268 162.67 54.5128 161.424L103.138 114.312L134.394 85Z" fill="url(#paint3_linear_9_12)"/>
</g>
<g filter="url(#filter2_d_9_12)">
<path d="M142.006 6H434.829H476.953C488.31 6 494.941 18.8106 488.384 28.0833L416.312 130L423.024 120.509C432.392 107.262 422.919 88.9615 406.695 88.9615H76.2538C74.5659 88.9615 72.956 88.2505 71.8191 87.0029L4.10059 12.6943C1.76001 10.1259 3.58221 6 7.05708 6H142.006Z" fill="url(#paint4_linear_9_12)"/>
<path d="M142.006 6H434.829H476.953C488.31 6 494.941 18.8106 488.384 28.0833L416.312 130L423.024 120.509C432.392 107.262 422.919 88.9615 406.695 88.9615H76.2538C74.5659 88.9615 72.956 88.2505 71.8191 87.0029L4.10059 12.6943C1.76001 10.1259 3.58221 6 7.05708 6H142.006Z" fill="url(#paint5_linear_9_12)"/>
</g>
</g>
<defs>
<filter id="filter0_d_9_12" x="84.2163" y="159.978" width="301.425" height="239.996" filterUnits="userSpaceOnUse" color-interpolation-filters="sRGB">
<feFlood flood-opacity="0" result="BackgroundImageFix"/>
<feColorMatrix in="SourceAlpha" type="matrix" values="0 0 0 0 0 0 0 0 0 0 0 0 0 0 0 0 0 0 127 0" result="hardAlpha"/>
<feOffset dy="10"/>
<feGaussianBlur stdDeviation="5"/>
<feComposite in2="hardAlpha" operator="out"/>
<feColorMatrix type="matrix" values="0 0 0 0 0 0 0 0 0 0 0 0 0 0 0 0 0 0 0.25 0"/>
<feBlend mode="normal" in2="BackgroundImageFix" result="effect1_dropShadow_9_12"/>
<feBlend mode="normal" in="SourceGraphic" in2="effect1_dropShadow_9_12" result="shape"/>
</filter>
<filter id="filter1_d_9_12" x="38.9005" y="85" width="404.31" height="146" filterUnits="userSpaceOnUse" color-interpolation-filters="sRGB">
<feFlood flood-opacity="0" result="BackgroundImageFix"/>
<feColorMatrix in="SourceAlpha" type="matrix" values="0 0 0 0 0 0 0 0 0 0 0 0 0 0 0 0 0 0 127 0" result="hardAlpha"/>
<feOffset dy="15"/>
<feGaussianBlur stdDeviation="7.5"/>
<feComposite in2="hardAlpha" operator="out"/>
<feColorMatrix type="matrix" values="0 0 0 0 0 0 0 0 0 0 0 0 0 0 0 0 0 0 0.25 0"/>
<feBlend mode="normal" in2="BackgroundImageFix" result="effect1_dropShadow_9_12"/>
<feBlend mode="normal" in="SourceGraphic" in2="effect1_dropShadow_9_12" result="shape"/>
</filter>
<filter id="filter2_d_9_12" x="-11.9508" y="6" width="517.928" height="154" filterUnits="userSpaceOnUse" color-interpolation-filters="sRGB">
<feFlood flood-opacity="0" result="BackgroundImageFix"/>
<feColorMatrix in="SourceAlpha" type="matrix" values="0 0 0 0 0 0 0 0 0 0 0 0 0 0 0 0 0 0 127 0" result="hardAlpha"/>
<feOffset dy="15"/>
<feGaussianBlur stdDeviation="7.5"/>
<feComposite in2="hardAlpha" operator="out"/>
<feColorMatrix type="matrix" values="0 0 0 0 0 0 0 0 0 0 0 0 0 0 0 0 0 0 0.25 0"/>
<feBlend mode="normal" in2="BackgroundImageFix" result="effect1_dropShadow_9_12"/>
<feBlend mode="normal" in="SourceGraphic" in2="effect1_dropShadow_9_12" result="shape"/>
</filter>
<linearGradient id="paint0_linear_9_12" x1="410" y1="261" x2="92" y2="261" gradientUnits="userSpaceOnUse">
<stop stop-color="#6468F0"/>
<stop offset="1" stop-color="#4F46E5"/>
</linearGradient>
<linearGradient id="paint1_linear_9_12" x1="410" y1="261" x2="92" y2="261" gradientUnits="userSpaceOnUse">
<stop stop-color="#6468F0"/>
<stop offset="1" stop-color="#4F46E5"/>
</linearGradient>
<linearGradient id="paint2_linear_9_12" x1="51" y1="143" x2="447" y2="143" gradientUnits="userSpaceOnUse">
<stop stop-color="#4F46E5"/>
<stop offset="1" stop-color="#6468F0"/>
</linearGradient>
<linearGradient id="paint3_linear_9_12" x1="51" y1="143" x2="447" y2="143" gradientUnits="userSpaceOnUse">
<stop stop-color="#4F46E5"/>
<stop offset="1" stop-color="#6468F0"/>
</linearGradient>
<linearGradient id="paint4_linear_9_12" x1="504" y1="68" x2="-2" y2="68" gradientUnits="userSpaceOnUse">
<stop stop-color="#6468F0"/>
<stop offset="1" stop-color="#4F46E5"/>
</linearGradient>
<linearGradient id="paint5_linear_9_12" x1="504" y1="68" x2="-2" y2="68" gradientUnits="userSpaceOnUse">
<stop stop-color="#6468F0"/>
<stop offset="1" stop-color="#4F46E5"/>
</linearGradient>
<clipPath id="clip0_9_12">
<rect width="502" height="388" fill="white"/>
</clipPath>
</defs>
</svg>
